<svg xmlns="http://www.w3.org/2000/svg" xmlns:xlink="http://www.w3.org/1999/xlink" width="164" height="167" viewBox="0 0 164 167">
  <defs>
    <clipPath id="clip-etape3_illu">
      <rect width="164" height="167"/>
    </clipPath>
  </defs>
  <g id="etape3_illu" clip-path="url(#clip-etape3_illu)">
    <g id="noun-food-safety-1176667_1_" data-name="noun-food-safety-1176667(1)" transform="translate(0 1)">
      <path id="Tracé_216" data-name="Tracé 216" d="M221.484,129.584h18l7.4,7.4a2.718,2.718,0,0,0,1.932.8h41a8.165,8.165,0,0,0,6.068-13.667,8.075,8.075,0,0,0,0-10.933,8.081,8.081,0,0,0-.024-10.964,7.848,7.848,0,0,0,2.048-4.08,8.2,8.2,0,0,0-8.091-9.556H271.745l1.534-4.6a2.812,2.812,0,0,0,.139-.864V71.774a10.525,10.525,0,0,0-20.644-2.892l-3.6,12.6-9.469,7.1H221.484a2.733,2.733,0,0,0-2.733,2.733v35.533a2.733,2.733,0,0,0,2.733,2.733ZM253.191,85.3a2.731,2.731,0,0,0,.99-1.435l3.851-13.484a5.057,5.057,0,0,1,9.919,1.389v10.9l-2.592,7.779a2.732,2.732,0,0,0,2.592,3.6h21.867a2.738,2.738,0,0,1,2.7,3.212,2.966,2.966,0,0,1-2.988,2.255H273.418v5.467h16.4a2.733,2.733,0,1,1,0,5.467h-16.4v5.467h16.4a2.733,2.733,0,1,1,0,5.467h-16.4v5.467h16.4a2.733,2.733,0,1,1,0,5.467H249.948l-6.6-6.6V92.685Zm-28.973,8.747h13.667v30.067H224.217Z" transform="translate(-177.751 -47.583)" fill="#5d4037"/>
      <path id="Tracé_217" data-name="Tracé 217" d="M248.767,159.631H231.65a13.457,13.457,0,0,0,1.175-5.467,13.687,13.687,0,0,0-12.781-13.64,19.159,19.159,0,0,0-9.023-9.053,65.63,65.63,0,1,0-93.713-5.382,72.949,72.949,0,0,0-15.216-4.684,2.734,2.734,0,0,0-3.18,2.348c-.09.71-2.173,17.526,3.1,26.35a41.094,41.094,0,0,0,8.017,9.531h-19.8a2.733,2.733,0,0,0-2.733,2.733A19.157,19.157,0,0,0,106.633,181.5H232.367A19.157,19.157,0,0,0,251.5,162.366a2.733,2.733,0,0,0-2.733-2.736ZM215.66,144.22a2.769,2.769,0,0,0,2.8,1.825l.694-.082a8.21,8.21,0,0,1,8.2,8.2,8.01,8.01,0,0,1-2.143,5.467H212.7a2.247,2.247,0,0,0-1.574,0H199.9c0-.052-.016-.1-.022-.153-.035-.369-.1-.73-.15-1.1-.073-.549-.148-1.1-.251-1.638-.09-.47-.2-.932-.315-1.394-.1-.419-.2-.836-.322-1.25-.145-.5-.3-1-.473-1.49-.123-.355-.251-.708-.388-1.058-.2-.511-.405-1.016-.628-1.517-.142-.315-.3-.62-.448-.932-.251-.509-.5-1.014-.782-1.506-.156-.273-.326-.536-.489-.8-.309-.505-.615-1.014-.952-1.5-.128-.185-.273-.361-.408-.547a30.322,30.322,0,0,0-2.947-3.507.008.008,0,0,1,0,0c.049-.073.11-.139.159-.214a13.219,13.219,0,0,1,.952-1.246c.139-.161.3-.306.443-.459.271-.287.547-.569.842-.829.181-.159.369-.3.558-.454.287-.227.58-.448.883-.653q.308-.205.628-.394c.309-.185.626-.358.952-.52.221-.11.443-.216.67-.315.342-.148.688-.273,1.041-.39.225-.077.445-.156.672-.218.391-.11.793-.189,1.195-.265.2-.035.394-.088.593-.115a13.179,13.179,0,0,1,1.843-.134,13.774,13.774,0,0,1,12.9,9.19Zm-83.5,15.41c-.218-.225-.434-.445-.648-.692-.24-.276-.478-.549-.71-.851-.3-.39-.6-.811-.888-1.241-.24-.353-.481-.7-.71-1.077-.268-.437-.522-.9-.776-1.367-.229-.421-.462-.833-.681-1.274-.236-.476-.454-.973-.672-1.468-.207-.47-.423-.932-.617-1.419-.207-.516-.388-1.049-.577-1.58-.174-.492-.361-.979-.52-1.481-.181-.571-.331-1.153-.487-1.733-.132-.481-.276-.957-.39-1.44-.159-.672-.276-1.345-.4-2.019-.073-.4-.17-.8-.229-1.2-.164-1.074-.287-2.145-.355-3.2a15.562,15.562,0,0,1,.073-2.634.083.083,0,0,1,0-.024,24.123,24.123,0,0,1,.533-3.026c0-.027,0-.052,0-.079.249-1.034.558-2.077.915-3.117a1.225,1.225,0,0,0,.071-.145,69.757,69.757,0,0,1,7.173-14.1,73.339,73.339,0,0,1,6.644,6.633c.183.207.364.405.544.617l.073.09c4.409,5.185,8.67,11.947,8.569,18.646-.009.443-.031.891-.06,1.34-.394.419-.754.858-1.118,1.293-.063.077-.132.148-.194.225a29.923,29.923,0,0,0-4.428,7.29c-.035.082-.066.167-.1.249q-.476,1.144-.853,2.326c-.063.194-.121.388-.178.585-.205.692-.386,1.391-.542,2.1-.055.249-.112.492-.161.743-.137.714-.243,1.435-.331,2.162-.027.227-.066.448-.088.675,0,.066-.02.128-.024.194h-7.863Zm13.495-.886c.068-.459.126-.924.218-1.375.013-.063.033-.123.046-.185a24.374,24.374,0,0,1,3.176-7.815c.063-.1.121-.207.185-.309.3-.465.626-.913.957-1.356.134-.181.262-.364.4-.542.306-.388.631-.76.959-1.131.15-.167.3-.337.456-.5,0,0,.011,0,.016-.011v0c.58-.615,1.184-1.192,1.81-1.739.049-.041.1-.079.148-.121.538-.462,1.093-.891,1.662-1.3.194-.139.4-.273.6-.408.426-.289.861-.563,1.3-.822.293-.172.588-.339.888-.5.366-.194.736-.375,1.109-.552.358-.167.716-.333,1.082-.483.344-.142.694-.265,1.041-.39.394-.139.785-.282,1.186-.405.366-.11.738-.2,1.107-.289.39-.1.776-.2,1.175-.282.452-.09.913-.148,1.369-.21.328-.046.65-.106.981-.139.809-.072,1.618-.116,2.434-.116.76,0,1.512.038,2.253.106.492.046.979.126,1.468.2.238.035.478.06.714.1.62.115,1.232.26,1.84.423.093.024.189.041.282.068.664.185,1.32.4,1.968.642.033.011.068.022.1.035q1,.377,1.968.842a.25.25,0,0,1,.041.02q.972.467,1.9,1.023a.255.255,0,0,0,.035.02c.613.366,1.21.763,1.793,1.181l.057.038q.86.628,1.673,1.331c.022.02.046.038.068.057a24.732,24.732,0,0,1,3.537,3.822c.044.057.082.121.126.178.448.61.866,1.241,1.254,1.887.077.128.15.26.227.39q.516.893.954,1.829c.071.15.142.3.207.451.282.631.533,1.276.76,1.929.049.142.1.278.15.421.236.714.432,1.44.6,2.176.02.084.046.17.066.254a24.178,24.178,0,0,1,.4,2.442H145.52c.033-.3.088-.591.132-.886ZM166.768,22.965a60.12,60.12,0,0,1,38,106.716c-.35-.038-.692-.024-1.038-.044-.326-.016-.643-.071-.974-.071-.09,0-.174.02-.265.02a18.567,18.567,0,0,0-2.192.159c-.112.013-.227.016-.337.033a18.882,18.882,0,0,0-11.431,6.172c-.2.218-.369.462-.558.692-.287.353-.593.688-.858,1.066-.02-.013-.038-.024-.057-.035-.408-.282-.831-.542-1.252-.8-.309-.192-.617-.386-.932-.566-.432-.249-.866-.481-1.312-.708-.328-.167-.661-.326-.994-.478-.445-.207-.891-.415-1.351-.6-.4-.164-.815-.3-1.221-.448-.672-.238-1.351-.456-2.045-.648-.5-.139-1-.276-1.506-.388-.368-.082-.743-.15-1.118-.218-.563-.1-1.126-.189-1.695-.26-.32-.038-.634-.082-.957-.112-.9-.082-1.81-.137-2.722-.137-.935,0-1.861.057-2.78.142-.229.022-.459.049-.688.077q-1.157.132-2.288.35c-.142.027-.284.049-.426.079a29.614,29.614,0,0,0-5.341,1.66l-.364.156c-.754.328-1.495.683-2.222,1.071-.1.052-.2.1-.3.156-.747.41-1.479.844-2.189,1.32a24.136,24.136,0,0,0-.563-2.846c-.031-.112-.073-.221-.1-.337-.232-.851-.494-1.695-.8-2.528-.123-.328-.273-.648-.408-.973-.249-.606-.494-1.214-.779-1.807-.178-.372-.377-.73-.566-1.1-.276-.533-.549-1.063-.847-1.583-.218-.377-.448-.743-.678-1.115-.3-.487-.6-.973-.913-1.448-.246-.372-.5-.73-.757-1.093-.317-.451-.631-.9-.957-1.331-.268-.358-.536-.7-.809-1.049-.326-.415-.65-.825-.981-1.225-.276-.337-.552-.659-.829-.981-.328-.383-.653-.754-.981-1.118-.278-.309-.549-.61-.825-.9-.322-.347-.637-.681-.954-1.006-.271-.282-.536-.555-.8-.82-.306-.306-.6-.6-.893-.883-.257-.249-.505-.492-.752-.725-.282-.265-.544-.509-.809-.752-.232-.214-.462-.426-.681-.624-.249-.225-.47-.419-.7-.617-.2-.172-.4-.35-.577-.5-.216-.185-.394-.333-.582-.489-.148-.123-.3-.257-.432-.361-.181-.15-.311-.251-.448-.364l-.254-.2c-.172-.137-.293-.227-.342-.265a2.726,2.726,0,0,0-2.048-.533h0a3.045,3.045,0,0,0-.454.161,2.881,2.881,0,0,0-.563.2c-.009,0-.013.016-.024.022a2.792,2.792,0,0,0-.774.7,83.1,83.1,0,0,0-6.644,11.1l-.033.068q-.6,1.217-1.173,2.5c-.027.063-.06.123-.088.185a60.093,60.093,0,0,1,45.229-99.706ZM106.706,147.3c-2.938-4.923-3.018-14.3-2.645-19.876a63.048,63.048,0,0,1,14.3,5.248c-.011.071-.013.134-.024.205-.115.692-.189,1.378-.243,2.061-.013.181-.046.368-.057.544a20.023,20.023,0,0,0,0,2.465c.073,1.14.214,2.29.386,3.447.052.344.115.686.175,1.03.148.851.317,1.695.511,2.542.079.344.156.686.243,1.03.265,1.049.56,2.091.893,3.119.031.093.055.189.084.282.369,1.118.782,2.206,1.221,3.272.126.3.26.6.39.893q.505,1.151,1.052,2.244c.161.32.32.635.487.946q.632,1.173,1.312,2.253c.112.178.216.372.331.544.02.027.035.06.055.09h-6.044A38.3,38.3,0,0,1,106.706,147.3Zm125.661,28.735H106.634A13.688,13.688,0,0,1,93.243,165.1H245.757a13.688,13.688,0,0,1-13.391,10.933Z" transform="translate(-87.5 -17.496)" fill="#5d4037"/>
      <path id="Tracé_218" data-name="Tracé 218" d="M342.72,420h5.467v8.2H342.72Z" transform="translate(-262.994 -294.265)" fill="#5d4037"/>
      <path id="Tracé_219" data-name="Tracé 219" d="M292.78,435.181l3.866-3.866,5.465,5.465-3.866,3.866Z" transform="translate(-228.654 -302.046)" fill="#5d4037"/>
      <path id="Tracé_220" data-name="Tracé 220" d="M380.28,436.779l5.465-5.465,3.866,3.866-5.465,5.465Z" transform="translate(-288.821 -302.045)" fill="#5d4037"/>
    </g>
  </g>
</svg>
