<svg xmlns="http://www.w3.org/2000/svg" xmlns:xlink="http://www.w3.org/1999/xlink" width="164" height="167" viewBox="0 0 164 167">
  <defs>
    <clipPath id="clip-etape2-illu">
      <rect width="164" height="167"/>
    </clipPath>
  </defs>
  <g id="etape2-illu" clip-path="url(#clip-etape2-illu)">
    <g id="noun-farmer-1176655" transform="translate(-0.383)">
      <path id="Tracé_199" data-name="Tracé 199" d="M323.344,281.97h5.563a8.354,8.354,0,0,0,8.344-8.344v-8.344a2.783,2.783,0,0,0-2.781-2.781H317.781A2.783,2.783,0,0,0,315,265.281v8.344A8.354,8.354,0,0,0,323.344,281.97Zm-2.781-13.907h11.126v5.563a2.786,2.786,0,0,1-2.781,2.781h-5.563a2.786,2.786,0,0,1-2.781-2.781Z" transform="translate(-242.684 -184.623)" fill="#5d4037"/>
      <path id="Tracé_200" data-name="Tracé 200" d="M87.5,39.754v19.47a19.483,19.483,0,0,0,16.688,19.248V184.387h5.563v-80.66h33.377a16.274,16.274,0,0,0,5.563-.976V165.2a13.93,13.93,0,0,0-11.126,13.626V181.6a2.783,2.783,0,0,0,2.781,2.781h61.191a2.783,2.783,0,0,0,2.781-2.781v-2.781A13.929,13.929,0,0,0,193.193,165.2V102.751a16.273,16.273,0,0,0,5.563.976h24.006l5.978,23.038a6.378,6.378,0,0,0,12.347,0l10.258-39.531a11.123,11.123,0,0,0-10.72-14.1h-2.8c.276-3.885.968-7.916,2.113-9.488a12.074,12.074,0,0,1,6.759-4.5l-1.324-5.4a17.475,17.475,0,0,0-9.93,6.626,9.923,9.923,0,0,0-.534.92,9.606,9.606,0,0,0-.534-.92,17.489,17.489,0,0,0-9.93-6.626l-1.324,5.4a12.083,12.083,0,0,1,6.759,4.5c1.146,1.572,1.839,5.6,2.113,9.488h-2.8a11.065,11.065,0,0,0-11.1,11.126h-8.856a5.529,5.529,0,0,1-4.708-2.6l-5.785-9.179a13.836,13.836,0,0,0-12.439-7.687h-1.774a19.215,19.215,0,0,0,5.02-19.47h9.192V39.756h-9.2L181.89,19.31a2.778,2.778,0,0,0-2.6-1.805H162.6a2.786,2.786,0,0,0-2.606,1.805l-7.665,20.446h-9.2v5.563h9.192a19.215,19.215,0,0,0,5.02,19.47h-1.774a13.828,13.828,0,0,0-12.438,7.687l-4.353,8.708a5.535,5.535,0,0,1-4.975,3.074H109.752V78.473a19.483,19.483,0,0,0,16.688-19.248V39.756h-5.563v19.47a13.934,13.934,0,0,1-11.126,13.626v-33.1H104.19v33.1A13.934,13.934,0,0,1,93.064,59.226V39.756Zm91.786,30.6V81.475H162.6V70.35Zm-17.9,16.688h19.1l7.137,11.9v54.859H173.723V128.76H168.16v25.033H154.253V98.934Zm-9.919,83.442a2.783,2.783,0,0,0,2.781-2.781v-8.344H168.16v19.47H143.128A8.354,8.354,0,0,1,151.472,170.48Zm47.284,8.344H173.723v-19.47H187.63V167.7a2.783,2.783,0,0,0,2.781,2.781A8.354,8.354,0,0,1,198.756,178.824ZM224.773,80.89a5.52,5.52,0,0,1,4.428-2.2h11.42a5.567,5.567,0,0,1,5.348,7.1L235.7,125.37a.846.846,0,0,1-1.574,0l-6.52-25.118v0L223.992,86.34s0,0,0,0l-.153-.59a5.546,5.546,0,0,1,.936-4.855ZM193.913,75.2l5.915,9.414a11.071,11.071,0,0,0,9.422,5.208h9.9l2.167,8.344H198.756a10.966,10.966,0,0,1-6.344-2.075l-7.563-12.6V70.348h1.469a8.443,8.443,0,0,1,7.6,4.848ZM164.525,23.065h12.833l6.258,16.688H158.267Zm-7.49,27.814a13.9,13.9,0,0,1,1.171-5.563h25.47a13.9,13.9,0,1,1-26.641,5.563ZM133.8,89.818a11.068,11.068,0,0,0,9.952-6.15L148.1,74.96a8.291,8.291,0,0,1,7.461-4.612h1.469V83.485l-7.563,12.6a10.966,10.966,0,0,1-6.344,2.075H109.751V89.818Z" transform="translate(-87.5 -17.505)" fill="#5d4037"/>
    </g>
  </g>
</svg>
