<svg xmlns="http://www.w3.org/2000/svg" xmlns:xlink="http://www.w3.org/1999/xlink" width="164" height="167" viewBox="0 0 164 167">
  <defs>
    <clipPath id="clip-etape1_illu">
      <rect width="164" height="167"/>
    </clipPath>
  </defs>
  <g id="etape1_illu" clip-path="url(#clip-etape1_illu)">
    <g id="noun-organic-fruits-1176642" transform="translate(0 1.499)">
      <path id="Tracé_236" data-name="Tracé 236" d="M245,192.5v5.467a5.472,5.472,0,0,1,5.467,5.467h5.467A10.945,10.945,0,0,0,245,192.5Z" transform="translate(-195.8 -137.83)" fill="#5d4037"/>
      <path id="Tracé_237" data-name="Tracé 237" d="M387.56,172.681l3.866-3.866,5.465,5.465-3.866,3.866Z" transform="translate(-293.828 -121.543)" fill="#5d4037"/>
      <path id="Tracé_238" data-name="Tracé 238" d="M525,288.75h10.933v5.467H525Z" transform="translate(-388.335 -204.014)" fill="#5d4037"/>
      <path id="Tracé_239" data-name="Tracé 239" d="M140,288.75h10.933v5.467H140Z" transform="translate(-123.6 -204.014)" fill="#5d4037"/>
      <path id="Tracé_240" data-name="Tracé 240" d="M525,376.25h10.933v5.467H525Z" transform="translate(-388.335 -264.18)" fill="#5d4037"/>
      <path id="Tracé_241" data-name="Tracé 241" d="M140,376.25h10.933v5.467H140Z" transform="translate(-123.6 -264.18)" fill="#5d4037"/>
      <path id="Tracé_242" data-name="Tracé 242" d="M525,463.75h10.933v5.467H525Z" transform="translate(-388.335 -324.347)" fill="#5d4037"/>
      <path id="Tracé_243" data-name="Tracé 243" d="M140,463.75h10.933v5.467H140Z" transform="translate(-123.6 -324.347)" fill="#5d4037"/>
      <path id="Tracé_244" data-name="Tracé 244" d="M327.016,359.835a2.733,2.733,0,0,0-2.733-2.733,17.9,17.9,0,0,0-13.667,5.833v-4.36c2.676-1.878,8.2-6.476,8.2-12.406,0-7.375-8.555-12.7-9.531-13.279a2.728,2.728,0,0,0-2.8,0c-.979.58-9.534,5.9-9.534,13.279,0,5.929,5.524,10.526,8.2,12.406v4.36a17.9,17.9,0,0,0-13.667-5.833,2.733,2.733,0,0,0-2.733,2.733c0,11.8,6.62,20.319,16.4,21.659v5.674h5.467v-5.674c9.78-1.34,16.4-9.859,16.4-21.659Zm-5.661,3.007c-.809,6.18-4.177,11.795-10.548,13.106C311.564,370.036,314.645,364.159,321.355,362.842Zm-13.47-24.3c2.217,1.651,5.464,4.706,5.464,7.631,0,2.905-3.256,5.972-5.469,7.631-2.217-1.651-5.464-4.706-5.464-7.631C302.416,343.263,305.672,340.2,307.885,338.537Zm-13.475,24.3c6.71,1.318,9.791,7.2,10.548,13.106C298.587,374.636,295.222,369.018,294.41,362.842Z" transform="translate(-225.883 -234.099)" fill="#5d4037"/>
      <path id="Tracé_245" data-name="Tracé 245" d="M243.3,88.557H240.39a24.02,24.02,0,0,0-9.227-15.807,16.139,16.139,0,0,0,1.2-6.059A16.422,16.422,0,0,0,219.1,50.6c-.093-1.091-.236-2.178-.41-3.258A19.15,19.15,0,0,0,235.1,28.424V25.69a2.733,2.733,0,0,0-2.733-2.733h-2.733a19.138,19.138,0,0,0-16.395,9.285,47.858,47.858,0,0,0-6.2-8.41l-4.006,3.717A41.438,41.438,0,0,1,211,40.087a38.618,38.618,0,0,1,1.706,5.379c0,.024.024.044.031.071.194.811.39,1.62.536,2.476.139.82.227,1.645.311,2.473a16.417,16.417,0,0,0-12.543,9.452,23.258,23.258,0,0,0-16.507-6.914c-.225,0-.445.011-.853.038-.164-.018-.412-.038-.514-.038-.39,0-.771.068-1.157.1a36.92,36.92,0,0,1,4.819-6.781c.016-.016.042-.022.057-.041l.32-.361c.221-.251.44-.5.661-.73a0,0,0,0,1,0,0,41.97,41.97,0,0,1,7.695-6.273l-2.922-4.616c-1.178.747-2.455,1.651-3.761,2.663a18.6,18.6,0,0,0-3.659-12.168c-2.985-4.016-14.465-6.576-17.914-7.265a2.728,2.728,0,0,0-3.1,1.722c-.388,1.036-3.67,10.291.049,16.742,3.641,6.311,9.9,7.968,12.251,8.594l3.717,1.228a41.817,41.817,0,0,0-4.141,6.95,19,19,0,0,0-27.8,11.8,21.674,21.674,0,0,0-26.89,2.984,13.334,13.334,0,0,1,.908-5.513c.117-.311.249-.62.386-.93,1.375-3.108,3.745-6.271,6.749-10.25l1.253-1.669-4.373-3.28-1.25,1.656c-1.257,1.664-2.447,3.249-3.537,4.808a13.634,13.634,0,0,0-12.16-7.557h-2.733a2.733,2.733,0,0,0-2.733,2.733v2.733a13.635,13.635,0,0,0,12.242,13.521,18.241,18.241,0,0,0-.068,5.694c-.412-.029-.822-.082-1.241-.082A16.281,16.281,0,0,0,98.684,88.557H95.7a8.21,8.21,0,0,0-8.2,8.2v16.4a8.147,8.147,0,0,0,2.132,5.467A8.148,8.148,0,0,0,87.5,124.09v16.4a8.147,8.147,0,0,0,2.132,5.467,8.147,8.147,0,0,0-2.132,5.467v16.4a8.21,8.21,0,0,0,8.2,8.2h54.191a37.9,37.9,0,0,0,39.218,0H243.3a8.21,8.21,0,0,0,8.2-8.2v-16.4a8.147,8.147,0,0,0-2.132-5.467,8.136,8.136,0,0,0,2.132-5.467v-16.4a8.147,8.147,0,0,0-2.132-5.467,8.136,8.136,0,0,0,2.132-5.467v-16.4a8.21,8.21,0,0,0-8.2-8.2ZM109.366,50.29a8.21,8.21,0,0,1,8.2,8.2A8.21,8.21,0,0,1,109.366,50.29ZM229.631,28.424a13.684,13.684,0,0,1-12.185,13.585c-.328-1.1-.681-2.178-1.071-3.207a13.66,13.66,0,0,1,13.257-10.378Zm-15.9,27.565a39.975,39.975,0,0,1-.462,4.788l5.394.891a44.673,44.673,0,0,0,.525-5.374,10.916,10.916,0,0,1,7.711,10.4,10.743,10.743,0,0,1-1.567,5.538,2.734,2.734,0,0,0,.866,3.69,18.74,18.74,0,0,1,8.681,12.639H191.6v-.013c.011-.071.038-.142.052-.214a17.171,17.171,0,0,1,.584-2.3c.093-.282.218-.549.328-.825.207-.533.421-1.063.681-1.577.156-.306.333-.6.509-.9.268-.462.544-.919.853-1.358.207-.3.43-.588.656-.875.328-.419.675-.822,1.041-1.217.251-.271.505-.542.776-.8.4-.386.822-.749,1.257-1.1.282-.229.555-.465.851-.683.5-.369,1.034-.705,1.572-1.034.271-.167.525-.347.807-.5a22.643,22.643,0,0,1,2.627-1.257,2.734,2.734,0,0,0,1.552-3.476,10.746,10.746,0,0,1-.7-3.67c.016-.115.044-.39.046-.473,0-.016,0-.031,0-.046a10.925,10.925,0,0,1,8.649-10.237ZM177.909,39.313c-1.918-.509-6.415-1.7-8.919-6.04-1.558-2.7-1.03-6.972-.337-9.837,5.412,1.287,11.171,3.285,12.174,4.633a14.092,14.092,0,0,1,2.361,10.909,3.332,3.332,0,0,0-.023.379v1.675l-4.713-1.569ZM166.765,55.757a13.6,13.6,0,0,1,7.263,2.138,42.287,42.287,0,0,0-1.782,8.517l5.436.56a36.969,36.969,0,0,1,1.631-7.7,10.583,10.583,0,0,1,3.709-.789,6.11,6.11,0,0,0,.719.049l.789-.044a17.8,17.8,0,0,1,15.033,8.323c0,.038.011.077.013.115a15.48,15.48,0,0,0,.317,2.9,27.908,27.908,0,0,0-2.914,1.708c-.315.207-.6.445-.9.667-.593.432-1.181.866-1.73,1.34-.328.282-.624.584-.935.88-.476.454-.946.91-1.38,1.391-.3.331-.573.675-.853,1.02-.394.487-.774.979-1.129,1.49-.254.369-.492.741-.725,1.12-.322.525-.62,1.06-.9,1.6-.2.39-.394.785-.571,1.186-.251.569-.467,1.146-.67,1.73-.139.4-.287.8-.405,1.214-.178.624-.309,1.257-.432,1.894-.077.39-.172.776-.227,1.173-.013.1-.046.205-.06.309H157.855c.016-.066.022-.132.038-.194.17-.675.3-1.356.4-2.041.031-.2.077-.4.1-.6a21.723,21.723,0,0,0,.17-2.633c0-.714-.042-1.422-.106-2.123-.022-.218-.06-.432-.088-.65-.06-.481-.126-.962-.218-1.435-.046-.24-.11-.476-.163-.71-.1-.443-.21-.886-.342-1.32-.071-.235-.15-.462-.227-.694-.142-.426-.3-.851-.465-1.268-.09-.225-.189-.443-.284-.664q-.271-.611-.582-1.206c-.115-.218-.229-.434-.353-.648q-.32-.562-.672-1.107c-.142-.221-.287-.441-.437-.656-.232-.331-.476-.653-.727-.973-.181-.229-.357-.456-.547-.678-.079-.093-.15-.194-.232-.287a13.681,13.681,0,0,1,13.643-12.914ZM103.9,85.823A10.945,10.945,0,0,1,114.833,74.89a10.788,10.788,0,0,1,2.886.445,37.618,37.618,0,0,0,1.624,3.558,16.648,16.648,0,0,0,6.5,6.551l2.771-4.715a11.274,11.274,0,0,1-4.431-4.378c-.421-.807-.779-1.572-1.1-2.315a16.3,16.3,0,0,1,25.626-2.077c.249.268.5.536.725.818.142.174.271.361.408.544.174.236.355.467.516.71s.3.489.448.738c.117.2.243.4.353.6.153.287.287.584.423.88.084.181.174.358.251.542.132.317.243.646.355.97.06.174.132.347.185.525.1.337.183.681.262,1.025.041.178.1.355.132.536.071.358.117.725.167,1.091.022.172.057.342.073.514a14.825,14.825,0,0,1,.09,1.636,16.16,16.16,0,0,1-.207,2.407c-.035.236-.073.47-.121.705a15.894,15.894,0,0,1-.56,2.116c-.027.079-.06.159-.088.238H104.251a10.706,10.706,0,0,1-.353-2.733ZM92.966,96.757A2.737,2.737,0,0,1,95.7,94.023H243.3a2.737,2.737,0,0,1,2.733,2.733v16.4a2.737,2.737,0,0,1-2.733,2.733H196.241c-.216-.21-.451-.394-.672-.6-.642-.6-1.285-1.2-1.966-1.752-.505-.412-1.036-.782-1.558-1.164-.443-.326-.872-.664-1.329-.97-.765-.514-1.558-.979-2.356-1.433-.246-.142-.483-.3-.732-.434-.941-.509-1.9-.965-2.883-1.391-.142-.063-.278-.137-.423-.2-1.023-.432-2.063-.807-3.121-1.146-.132-.041-.254-.1-.386-.137-1.023-.317-2.063-.573-3.113-.8-.189-.041-.372-.1-.563-.139-1.005-.2-2.026-.344-3.051-.467-.249-.031-.489-.082-.738-.106-1.268-.126-2.555-.194-3.851-.194s-2.583.068-3.853.194c-.249.024-.489.079-.738.106-1.025.123-2.048.265-3.051.467-.192.038-.375.1-.563.139-1.049.229-2.091.487-3.113.8-.132.041-.254.093-.386.137-1.058.339-2.1.714-3.121,1.146-.145.06-.278.134-.423.2-.979.426-1.944.88-2.883,1.391-.251.137-.487.293-.732.434-.8.456-1.591.919-2.356,1.433-.456.306-.886.646-1.329.97-.522.386-1.052.754-1.558,1.164-.681.555-1.323,1.153-1.966,1.752-.218.2-.456.388-.672.6H95.7a2.737,2.737,0,0,1-2.733-2.733ZM246.031,124.09v16.4a2.737,2.737,0,0,1-2.733,2.733H207.765c0-1.181-.071-2.354-.178-3.516-.033-.355-.079-.7-.121-1.055q-.152-1.25-.379-2.484c-.066-.353-.128-.705-.205-1.055q-.324-1.492-.76-2.949c-.035-.121-.063-.243-.1-.364-.339-1.08-.736-2.14-1.167-3.185-.126-.306-.271-.6-.405-.9-.326-.732-.672-1.457-1.047-2.167-.183-.353-.372-.7-.566-1.045q-.562-.992-1.186-1.949c-.207-.322-.405-.65-.624-.965-.052-.077-.1-.156-.15-.232H243.3a2.737,2.737,0,0,1,2.733,2.733Zm-108.685-1.536c-.412.639-.811,1.287-1.186,1.949-.194.344-.383.694-.566,1.045-.372.71-.719,1.435-1.047,2.167-.134.3-.276.6-.405.9-.434,1.045-.829,2.1-1.167,3.185-.038.121-.063.243-.1.364q-.439,1.455-.76,2.949c-.077.35-.137.7-.205,1.055-.153.822-.282,1.651-.379,2.484-.041.353-.09.7-.121,1.055-.106,1.16-.177,2.333-.177,3.514H95.7a2.737,2.737,0,0,1-2.733-2.733v-16.4a2.737,2.737,0,0,1,2.733-2.733h42.418c-.052.077-.1.156-.15.232-.22.315-.416.643-.624.965Zm-41.646,48a2.737,2.737,0,0,1-2.733-2.733v-16.4A2.737,2.737,0,0,1,95.7,148.69h35.958c.016.106.044.207.06.315a37.983,37.983,0,0,0,5.224,14.227c.011.016.022.035.033.052.522.844,1.074,1.667,1.662,2.469.057.079.115.153.172.232.577.776,1.173,1.534,1.807,2.264.046.052.1.1.139.153.65.741,1.312,1.468,2.015,2.156Zm56.272.344a32.9,32.9,0,0,1-15.143-25.151c-.065-.837-.131-1.673-.131-2.526,0-1.1.057-2.184.164-3.256.038-.39.115-.774.17-1.164.093-.675.178-1.353.309-2.015.09-.451.218-.891.328-1.336.142-.584.276-1.173.448-1.744.145-.473.322-.935.489-1.4.185-.525.364-1.052.573-1.567.205-.492.441-.97.67-1.455.216-.459.423-.924.661-1.369.278-.525.591-1.034.9-1.545.227-.375.443-.757.683-1.124.375-.569.782-1.115,1.192-1.662.21-.282.41-.569.631-.842.478-.6.994-1.17,1.517-1.735.183-.2.355-.405.544-.6.617-.637,1.268-1.235,1.927-1.814.17-.15.331-.311.5-.459.577-.487,1.181-.93,1.782-1.372.293-.214.571-.445.872-.65.408-.278.836-.52,1.252-.776.516-.32,1.023-.656,1.558-.948.041-.022.082-.038.121-.06a32.711,32.711,0,0,1,31.013,0c.042.022.082.038.121.06.536.293,1.041.628,1.558.948.419.26.844.5,1.252.776.3.2.577.437.872.65.6.443,1.208.886,1.782,1.372.174.148.333.309.5.459.659.58,1.307,1.178,1.927,1.814.189.194.361.4.544.6.525.566,1.038,1.14,1.517,1.735.218.273.421.563.631.842.41.547.82,1.093,1.192,1.662.24.366.456.749.683,1.124.309.511.62,1.02.9,1.545.238.448.445.91.661,1.369.227.483.465.962.67,1.454.21.511.388,1.041.574,1.567.164.465.344.926.489,1.4.174.571.306,1.159.448,1.744.11.445.238.886.328,1.336.132.661.216,1.34.309,2.015.052.388.128.771.17,1.164.106,1.073.164,2.159.164,3.257,0,.853-.066,1.689-.132,2.526A32.71,32.71,0,0,1,151.971,170.9Zm94.06-3.077a2.737,2.737,0,0,1-2.733,2.733H196.229c.7-.688,1.367-1.415,2.015-2.156.046-.052.1-.1.139-.153.634-.73,1.228-1.487,1.807-2.264.057-.077.117-.153.172-.232.585-.8,1.137-1.62,1.662-2.469.011-.016.022-.035.033-.052A37.9,37.9,0,0,0,207.281,149c.016-.106.044-.207.06-.315H243.3a2.737,2.737,0,0,1,2.733,2.733Z" transform="translate(-87.499 -17.487)" fill="#5d4037"/>
    </g>
  </g>
</svg>
