<svg xmlns="http://www.w3.org/2000/svg" xmlns:xlink="http://www.w3.org/1999/xlink" width="24" height="24" viewBox="0 0 24 24">
  <defs>
    <clipPath id="clip-facebook-theme1_icon">
      <rect width="24" height="24"/>
    </clipPath>
  </defs>
  <g id="facebook-theme1_icon" clip-path="url(#clip-facebook-theme1_icon)">
    <rect id="Rectangle_494" data-name="Rectangle 494" width="24" height="24" fill="none"/>
    <path id="Tracé_413" data-name="Tracé 413" d="M974.618-287.873a1.261,1.261,0,0,0-.441.394l-.178.263v18.885l.178.263c.371.556.139.533,5.718.533h5v-8.029h-2.558l-.016-1.468-.016-1.476h2.573l.039-1.607a8.167,8.167,0,0,1,.17-2.025,3.351,3.351,0,0,1,2.473-2.442,5.274,5.274,0,0,1,1.692-.131c.672.008,1.36.039,1.522.062l.3.054v2.511l-1.036.039c-.943.031-1.059.054-1.375.24-.564.332-.641.564-.641,2.025v1.236l1.491.023,1.491.015-.039.216c-.023.116-.116.765-.2,1.437s-.162,1.244-.185,1.26-.595.039-1.29.046l-1.267.015L988-271.685c-.008,2.565.008,3.895.062,3.995.077.147.185.155,2.79.155,2.573,0,2.72-.008,3.014-.162a.907.907,0,0,0,.464-.479c.139-.317.147-.649.147-9.6v-9.28l-.17-.34c-.348-.672.518-.618-10.069-.618C975.491-288.012,974.873-288,974.618-287.873Z" transform="translate(-972.239 289.996)" fill="#5d4037"/>
  </g>
</svg>
