<svg xmlns="http://www.w3.org/2000/svg" xmlns:xlink="http://www.w3.org/1999/xlink" width="24" height="24" viewBox="0 0 24 24">
  <defs>
    <clipPath id="clip-instagram-theme1_icon">
      <rect width="24" height="24"/>
    </clipPath>
  </defs>
  <g id="instagram-theme1_icon" clip-path="url(#clip-instagram-theme1_icon)">
    <g id="Groupe_494" data-name="Groupe 494" transform="translate(-1588.486 -125.289)">
      <path id="Tracé_410" data-name="Tracé 410" d="M29.144-296.541a5.97,5.97,0,0,0-4.463,1.869,6.124,6.124,0,0,0-1.513,4.13c-.091,1.346-.091,7.232,0,8.608a12.84,12.84,0,0,0,.227,1.7,5.436,5.436,0,0,0,2.837,3.593c1.309.643,2.307.749,7.224.749,4.894,0,5.885-.106,7.254-.764a4.077,4.077,0,0,0,1.339-1.006c1.188-1.2,1.558-2.216,1.7-4.66.106-1.717.045-8.328-.083-9.153a7.552,7.552,0,0,0-.847-2.443,5.775,5.775,0,0,0-4.145-2.549C37.965-296.571,30.589-296.632,29.144-296.541Zm9.554,2.216a3.548,3.548,0,0,1,1.793.93,3.583,3.583,0,0,1,1.036,1.906c.121.53.136,1.014.136,5.272,0,5.114-.008,5.167-.454,6.15a3.79,3.79,0,0,1-1.49,1.52c-.968.484-1.12.5-6.264.5s-5.3-.015-6.264-.5a3.79,3.79,0,0,1-1.49-1.52c-.454-.983-.454-1.036-.454-6.15,0-5.189.008-5.333.5-6.3a3.926,3.926,0,0,1,1.4-1.437,5.215,5.215,0,0,1,1.77-.469c.31-.038,2.527-.053,4.917-.045A32.96,32.96,0,0,1,38.7-294.325Z" transform="translate(1567.033 423.526)" fill="#5d4037"/>
      <path id="Tracé_411" data-name="Tracé 411" d="M215.978-248.871a1.665,1.665,0,0,0-.749,1.112,1.235,1.235,0,0,0,1.324,1.309,1.622,1.622,0,0,0,1.074-.7,1.387,1.387,0,0,0-.03-1.331A1.314,1.314,0,0,0,215.978-248.871Z" transform="translate(1389.443 379.54)" fill="#5d4037"/>
      <path id="Tracé_412" data-name="Tracé 412" d="M94.193-229.86a5.6,5.6,0,0,0-3.215,1.9,5.273,5.273,0,0,0,.378,7.088,5.3,5.3,0,0,0,7.149.333,5.581,5.581,0,0,0,1.785-2.943,6.311,6.311,0,0,0-.121-2.723,5.289,5.289,0,0,0-5.121-3.7C94.685-229.9,94.3-229.875,94.193-229.86Zm2.36,2.232a3.5,3.5,0,0,1,1.6,1.626,2.33,2.33,0,0,1,.242,1.384,2.33,2.33,0,0,1-.242,1.384,3.482,3.482,0,0,1-1.6,1.626,2.239,2.239,0,0,1-1.445.28,2.239,2.239,0,0,1-1.445-.28,3.482,3.482,0,0,1-1.6-1.626,2.33,2.33,0,0,1-.242-1.384,2.29,2.29,0,0,1,.242-1.377,3.5,3.5,0,0,1,2.027-1.823,3.015,3.015,0,0,1,1.142-.113A2.366,2.366,0,0,1,96.553-227.629Z" transform="translate(1505.388 361.891)" fill="#5d4037"/>
    </g>
    <rect id="Rectangle_494" data-name="Rectangle 494" width="24" height="24" fill="none"/>
  </g>
</svg>
