<svg xmlns="http://www.w3.org/2000/svg" xmlns:xlink="http://www.w3.org/1999/xlink" width="60" height="60" viewBox="0 0 60 60">
  <defs>
    <clipPath id="clip-logo-theme1_icon">
      <rect width="60" height="60"/>
    </clipPath>
  </defs>
  <g id="logo-theme1_icon" clip-path="url(#clip-logo-theme1_icon)">
    <rect id="Rectangle_494" data-name="Rectangle 494" width="24" height="24" fill="none"/>
    <g id="Groupe_495" data-name="Groupe 495" transform="translate(26 26)">
      <circle id="Ellipse_1" data-name="Ellipse 1" cx="30" cy="30" r="30" transform="translate(-26 -26)" fill="#5d4037"/>
      <path id="Tracé_129" data-name="Tracé 129" d="M181.518,678.8a8.679,8.679,0,0,1-4.584-4.163l-.055-.111-.055.111a8.679,8.679,0,0,1-4.584,4.163,7.5,7.5,0,0,0-4.7,6.344V676.4a1.9,1.9,0,0,0-1.945-1.9,1.923,1.923,0,0,0-1.853,1.934v3.973a1.585,1.585,0,0,1-1.585,1.585h-4.271a1.585,1.585,0,0,1-1.585-1.585v-3.973a1.923,1.923,0,0,0-1.853-1.934,1.9,1.9,0,0,0-1.945,1.9v14.95a1.923,1.923,0,0,0,1.853,1.934,1.9,1.9,0,0,0,1.945-1.9v-4.009a1.585,1.585,0,0,1,1.585-1.585h4.271a1.585,1.585,0,0,1,1.585,1.585v3.973a1.923,1.923,0,0,0,1.853,1.934,1.9,1.9,0,0,0,1.945-1.9v-5a7.493,7.493,0,0,0,7.467,6.87h3.747a7.493,7.493,0,0,0,7.493-7.493h0A7.5,7.5,0,0,0,181.518,678.8Zm-2.766,10.816h-3.747a3.852,3.852,0,0,1-1.421-7.432,12.561,12.561,0,0,0,3.294-1.93,12.563,12.563,0,0,0,3.294,1.93,3.852,3.852,0,0,1-1.421,7.432Z" transform="translate(-164.983 -679.892)" fill="#fff"/>
    </g>
  </g>
</svg>
