<svg xmlns="http://www.w3.org/2000/svg" xmlns:xlink="http://www.w3.org/1999/xlink" width="40" height="40" viewBox="0 0 40 40"><defs><clipPath id="b"><rect width="40" height="40"/></clipPath></defs><g id="a" clip-path="url(#b)"><path d="M180.778,678.69a8.458,8.458,0,0,1-4.467-4.057l-.054-.108-.054.108a8.458,8.458,0,0,1-4.467,4.057,7.307,7.307,0,0,0-4.581,6.182V676.35a1.853,1.853,0,0,0-1.9-1.85,1.874,1.874,0,0,0-1.806,1.885v3.872a1.544,1.544,0,0,1-1.544,1.544h-4.162a1.544,1.544,0,0,1-1.544-1.544v-3.872A1.874,1.874,0,0,0,154.4,674.5a1.853,1.853,0,0,0-1.9,1.85V690.92a1.874,1.874,0,0,0,1.806,1.885,1.853,1.853,0,0,0,1.9-1.85v-3.907a1.544,1.544,0,0,1,1.544-1.545h4.162a1.544,1.544,0,0,1,1.544,1.545v3.872a1.874,1.874,0,0,0,1.806,1.885,1.853,1.853,0,0,0,1.9-1.85v-4.869a7.3,7.3,0,0,0,7.277,6.694h3.651a7.3,7.3,0,0,0,7.3-7.3h0A7.3,7.3,0,0,0,180.778,678.69Zm-2.7,10.541h-3.651a3.754,3.754,0,0,1-1.385-7.242,12.237,12.237,0,0,0,3.21-1.881,12.239,12.239,0,0,0,3.21,1.881,3.754,3.754,0,0,1-1.385,7.242Z" transform="translate(-148.943 -663.652)" fill="#fff"/></g></svg>