<svg xmlns="http://www.w3.org/2000/svg" xmlns:xlink="http://www.w3.org/1999/xlink" width="24" height="24" viewBox="0 0 24 24"><defs><clipPath id="b"><rect width="24" height="24"/></clipPath></defs><g id="a" clip-path="url(#b)"><path d="M0,0H24V24H0Z" fill="none"/><path d="M0,0H24V24H0Z" fill="none"/><g transform="translate(-0.695 -40.305)"><path d="M21.19,21.19,2.81,2.81,1.39,4.22,3.66,6.49A9.994,9.994,0,0,0,17.51,20.34l2.27,2.27ZM10.59,16.6,6.35,12.36l1.41-1.41,2.83,2.83.18-.18,1.41,1.41Zm3-5.84-7.1-7.1A9.994,9.994,0,0,1,20.34,17.51L15,12.17l2.65-2.65L16.24,8.11Z" transform="translate(1 40)" fill="#e3e9e9"/></g><path d="M0,0H24V24H0Z" fill="none"/></g></svg>