<svg xmlns="http://www.w3.org/2000/svg" xmlns:xlink="http://www.w3.org/1999/xlink" width="30" height="30" viewBox="0 0 30 30"><defs><clipPath id="b"><rect width="30" height="30"/></clipPath></defs><g id="a" clip-path="url(#b)"><path d="M26.882,10.623h-5.9l-5.4-8.085a1.223,1.223,0,0,0-1.023-.518,1.2,1.2,0,0,0-1.023.53l-5.4,8.073h-5.9A1.236,1.236,0,0,0,1,11.855a1.038,1.038,0,0,0,.049.333L4.18,23.613a2.451,2.451,0,0,0,2.366,1.8H22.569a2.477,2.477,0,0,0,2.379-1.8l3.131-11.425.037-.333A1.236,1.236,0,0,0,26.882,10.623ZM14.557,5.446l3.451,5.176h-6.9Zm8.011,17.5-16.01.012L3.847,13.088H25.28Zm-8.011-7.395a2.465,2.465,0,1,0,2.465,2.465A2.472,2.472,0,0,0,14.557,15.553Z" transform="translate(0.443 1.284)" fill="#e3e9e9"/></g></svg>