<svg xmlns="http://www.w3.org/2000/svg" xmlns:xlink="http://www.w3.org/1999/xlink" width="24" height="24" viewBox="0 0 24 24">
  <defs>
    <clipPath id="clip-twitter-theme1_icon">
      <rect width="24" height="24"/>
    </clipPath>
  </defs>
  <g id="twitter-theme1_icon" clip-path="url(#clip-twitter-theme1_icon)">
    <rect id="Rectangle_494" data-name="Rectangle 494" width="24" height="24" fill="none"/>
    <path id="Tracé_414" data-name="Tracé 414" d="M344.5-279.757A4.464,4.464,0,0,0,341.571-277a3.085,3.085,0,0,0-.184,1.425l-.007.95-.546-.043a11.891,11.891,0,0,1-4.133-1.184,11.284,11.284,0,0,1-3.6-2.715,3.431,3.431,0,0,0-.546-.546.982.982,0,0,0-.206.347,4.617,4.617,0,0,0,.021,3.658,4.978,4.978,0,0,0,1.155,1.489l.34.269-.369-.043a3.644,3.644,0,0,1-.815-.227,5.313,5.313,0,0,0-.617-.227c-.17-.043-.17-.043-.12.425a4.371,4.371,0,0,0,2.935,3.665c.22.071.354.142.3.17a4.275,4.275,0,0,1-.858.035,3.971,3.971,0,0,0-.822.028c-.071.071.113.517.4.964a4.336,4.336,0,0,0,3.084,1.978l.425.057-.39.255a8.694,8.694,0,0,1-5.012,1.382c-.588-.035-.737-.021-.808.064-.113.135-.142.113.929.659a11.764,11.764,0,0,0,5.068,1.326,11.832,11.832,0,0,0,10.257-4.756,13.106,13.106,0,0,0,2.538-7.464,1.742,1.742,0,0,1,.064-.652,9.747,9.747,0,0,0,1.978-2.091,1,1,0,0,0-.39.106,13.5,13.5,0,0,1-1.723.454l-.248.043.213-.156a5.329,5.329,0,0,0,1.4-1.616,2.63,2.63,0,0,0,.241-.553,1.373,1.373,0,0,0-.39.156,8.413,8.413,0,0,1-1.7.652l-.6.163-.362-.319a4.875,4.875,0,0,0-1.779-.914A5.458,5.458,0,0,0,344.5-279.757Z" transform="translate(-329.52 283.353)" fill="#5d4037"/>
  </g>
</svg>
