<svg xmlns="http://www.w3.org/2000/svg" xmlns:xlink="http://www.w3.org/1999/xlink" width="170" height="170" viewBox="0 0 170 170">
  <defs>
    <clipPath id="clip-valeur2_illu">
      <rect width="170" height="170"/>
    </clipPath>
  </defs>
  <g id="valeur2_illu" clip-path="url(#clip-valeur2_illu)">
    <g id="noun-harvest-1176638" transform="translate(2 2)">
      <path id="Tracé_398" data-name="Tracé 398" d="M288.75,297.5h16.617v5.539H288.75Z" transform="translate(-225.052 -208.877)" fill="#5d4037"/>
      <path id="Tracé_399" data-name="Tracé 399" d="M358.75,297.5h5.539v5.539H358.75Z" transform="translate(-272.896 -208.877)" fill="#5d4037"/>
      <path id="Tracé_400" data-name="Tracé 400" d="M367.5,358.75h13.847v5.539H367.5Z" transform="translate(-278.877 -250.74)" fill="#5d4037"/>
      <path id="Tracé_401" data-name="Tracé 401" d="M332.5,358.75h5.539v5.539H332.5Z" transform="translate(-254.955 -250.74)" fill="#5d4037"/>
      <path id="Tracé_402" data-name="Tracé 402" d="M323.75,455h11.078v5.539H323.75Z" transform="translate(-248.974 -316.526)" fill="#5d4037"/>
      <path id="Tracé_403" data-name="Tracé 403" d="M121.617,182.425a8.318,8.318,0,0,1,8.308-8.308,2.769,2.769,0,1,0,0-5.539,8.318,8.318,0,0,1-8.308-8.308,2.769,2.769,0,0,0-5.539,0,8.318,8.318,0,0,1-8.308,8.308,2.769,2.769,0,0,0,0,5.539,8.318,8.318,0,0,1,8.308,8.308,2.769,2.769,0,0,0,5.539,0Zm-5.548-11.078a13.95,13.95,0,0,0,2.778-2.778,13.984,13.984,0,0,0,2.778,2.778,13.949,13.949,0,0,0-2.778,2.778A13.949,13.949,0,0,0,116.069,171.347Z" transform="translate(-99.461 -113.188)" fill="#5d4037"/>
      <path id="Tracé_404" data-name="Tracé 404" d="M173.675,256.078a8.318,8.318,0,0,1-8.308-8.308,2.769,2.769,0,0,0-5.539,0,8.318,8.318,0,0,1-8.308,8.308,2.769,2.769,0,0,0,0,5.539,8.318,8.318,0,0,1,8.308,8.308,2.769,2.769,0,1,0,5.539,0,8.318,8.318,0,0,1,8.308-8.308,2.769,2.769,0,0,0,0-5.539ZM162.6,261.625a13.983,13.983,0,0,0-2.778-2.778,13.983,13.983,0,0,0,2.778-2.778,13.984,13.984,0,0,0,2.778,2.778A13.949,13.949,0,0,0,162.6,261.625Z" transform="translate(-129.364 -172.994)" fill="#5d4037"/>
      <path id="Tracé_405" data-name="Tracé 405" d="M104.117,53.5a2.769,2.769,0,1,0,5.539,0A13.863,13.863,0,0,1,123.5,39.656a2.769,2.769,0,0,0,0-5.539,13.863,13.863,0,0,1-13.847-13.847,2.769,2.769,0,1,0-5.539,0A13.863,13.863,0,0,1,90.269,34.117a2.769,2.769,0,1,0,0,5.539A13.863,13.863,0,0,1,104.117,53.5Zm2.769-23.255a19.574,19.574,0,0,0,6.638,6.638,19.574,19.574,0,0,0-6.638,6.638,19.573,19.573,0,0,0-6.638-6.638A19.574,19.574,0,0,0,106.886,30.248Z" transform="translate(-87.5 -17.5)" fill="#5d4037"/>
      <path id="Tracé_406" data-name="Tracé 406" d="M306.25,411.25h11.078v5.539H306.25Z" transform="translate(-237.013 -286.624)" fill="#5d4037"/>
      <path id="Tracé_407" data-name="Tracé 407" d="M358.991,47.964H347.913a8.262,8.262,0,0,0-6.073,2.68l-19.7-2.462-4.783-11.158a10.319,10.319,0,0,0-19.065,7.9l1.219,3.041H287.174C288.5,37,297.448,25.808,309.142,25.808V20.269c-8.843,0-17.01,5.135-22.156,12.729V17.5h-5.539V33C276.3,25.4,268.133,20.269,259.29,20.269v5.539c11.692,0,20.641,11.189,21.968,22.156h-10.89a8.273,8.273,0,0,0-6.148,13.847,8.182,8.182,0,0,0,0,11.078,8.182,8.182,0,0,0,0,11.078,8.16,8.16,0,0,0-.894,9.9,16.622,16.622,0,0,0-9.574,15.029,165.3,165.3,0,0,0,6.106,44.476l6.8,18.135a18.754,18.754,0,0,0,35.12-.006l6.871-18.361a165.209,165.209,0,0,0,6.032-44.242,16.568,16.568,0,0,0-4.936-11.8l32.056-2a8.257,8.257,0,0,0,6.112,2.729H358.99a8.318,8.318,0,0,0,8.308-8.308V56.274a8.318,8.318,0,0,0-8.308-8.308Zm-55.6,103.461-6.8,18.129a13.213,13.213,0,0,1-24.745,0l-6.725-17.9a159.831,159.831,0,0,1-5.827-42.761,11.09,11.09,0,0,1,11.078-11.078h27.695a11.09,11.09,0,0,1,11.078,11.078,159.734,159.734,0,0,1-5.755,42.533ZM339.6,89.677l-41.542,2.6H270.367a2.769,2.769,0,0,1,0-5.539h19.386V81.2H270.367a2.769,2.769,0,0,1,0-5.539h19.386V70.121H270.367a2.769,2.769,0,0,1,0-5.539h19.386V59.044H270.367a2.769,2.769,0,0,1,0-5.539H303.6a2.769,2.769,0,0,0,2.573-3.8l-2.736-6.841a4.779,4.779,0,0,1,8.829-3.658l5.405,12.617a2.77,2.77,0,0,0,2.2,1.659L339.6,55.95Zm22.156-.169a2.773,2.773,0,0,1-2.77,2.769H347.913a2.773,2.773,0,0,1-2.769-2.769V56.274a2.773,2.773,0,0,1,2.769-2.769h11.078a2.773,2.773,0,0,1,2.77,2.769Z" transform="translate(-201.131 -17.5)" fill="#5d4037"/>
    </g>
  </g>
</svg>
