<svg xmlns="http://www.w3.org/2000/svg" xmlns:xlink="http://www.w3.org/1999/xlink" width="170" height="170" viewBox="0 0 170 170">
  <defs>
    <clipPath id="clip-valeur3_illu">
      <rect width="170" height="170"/>
    </clipPath>
  </defs>
  <g id="valeur3_illu" clip-path="url(#clip-valeur3_illu)">
    <g id="noun-feeding-1176657_1_" data-name="noun-feeding-1176657(1)" transform="translate(1 2)">
      <path id="Tracé_364" data-name="Tracé 364" d="M332.5,341.25h5.493v5.493H332.5Z" transform="translate(-253.243 -238.252)" fill="#5d4037"/>
      <path id="Tracé_365" data-name="Tracé 365" d="M350,385h5.493v5.493H350Z" transform="translate(-265.25 -268.269)" fill="#5d4037"/>
      <path id="Tracé_366" data-name="Tracé 366" d="M350,437.5h5.493v5.493H350Z" transform="translate(-265.25 -304.29)" fill="#5d4037"/>
      <path id="Tracé_367" data-name="Tracé 367" d="M88.712,309.942a11.885,11.885,0,0,1,9.21-5.7l12.934,10.349a2.739,2.739,0,0,0,1.717.6h8.24a2.751,2.751,0,0,0,2.683-2.151l3.637-16.364a7.962,7.962,0,0,1,1.063-2.563c.038-.049.088-.088.121-.14a7.955,7.955,0,0,1,4.468-3.2c.1-.027.2-.058.308-.08a7.395,7.395,0,0,1,3.486-.022c.1.022.195.066.294.091a7.594,7.594,0,0,1,1.36.492c.066.031.126.071.19.1a8.01,8.01,0,0,1,1.357.877c.011.009.022.02.033.027a8.273,8.273,0,0,1,1.26,1.291c.016.022.042.036.058.058a7.828,7.828,0,0,1,1.654,4.784v26.648l-12.123,12.123h-19.7l-4.689-4.689-3.883,3.883,5.493,5.493a2.727,2.727,0,0,0,1.941.806h1.437l-3.985,9.965a2.749,2.749,0,0,0,2.548,3.768h8.24V350.9h-4.184l3.3-8.24H121.7l4.8,12.008a2.746,2.746,0,0,0,2.549,1.725,2.818,2.818,0,0,0,.868-.14l8.24-2.747-1.739-5.21-5.781,1.928-3.025-7.564H131.8a2.736,2.736,0,0,0,1.942-.8l13.733-13.733a2.74,2.74,0,0,0,.8-1.942v-9.613l9.888-7.416a2.747,2.747,0,0,0,0-4.395l-10-7.5a13.254,13.254,0,0,0-1.89-5.821l4.609-13.824a2.746,2.746,0,0,0-3.473-3.475l-6.627,2.211-4.293-4.293a2.743,2.743,0,0,0-3.883,0l-4.293,4.293-6.627-2.211a2.746,2.746,0,0,0-3.472,3.475l4.837,14.515a13.468,13.468,0,0,0-1.278,3.362L118.61,309.7h-5.076l-12.98-10.384a2.727,2.727,0,0,0-1.714-.6A17.384,17.384,0,0,0,84,307.115l-4,6.669,4.711,2.824Zm59.565-.239V304.21l3.661,2.747ZM128.183,282.1a2.738,2.738,0,0,0,2.81-.665l3.551-3.552,3.551,3.551a2.744,2.744,0,0,0,2.81.665l3.03-1.01-1.986,5.952a11.7,11.7,0,0,0-1.112-.585,13.351,13.351,0,0,0-2.027-.808c-.173-.053-.341-.115-.514-.159a13.463,13.463,0,0,0-1.783-.335l-.049,0a11.989,11.989,0,0,0-9.1,2.157c-.038.025-.08.044-.118.069l-2.1-6.284Z" transform="translate(-80.006 -190.226)" fill="#5d4037"/>
      <path id="Tracé_368" data-name="Tracé 368" d="M134.448,426.025l-3.01-4.6a21.406,21.406,0,0,0-6.3,6.3,22.534,22.534,0,0,0-3.154,15.647l5.429-.848a17.028,17.028,0,0,1,2.34-11.819,15.938,15.938,0,0,1,4.69-4.681Z" transform="translate(-108.616 -293.263)" fill="#5d4037"/>
      <path id="Tracé_369" data-name="Tracé 369" d="M108.2,399.775l-3.01-4.6a21.406,21.406,0,0,0-6.3,6.3,22.534,22.534,0,0,0-3.154,15.647l5.429-.849a17.028,17.028,0,0,1,2.34-11.819,15.938,15.938,0,0,1,4.69-4.681Z" transform="translate(-90.606 -275.253)" fill="#5d4037"/>
      <path id="Tracé_370" data-name="Tracé 370" d="M245,358.75h5.493v5.493H245Z" transform="translate(-193.209 -250.259)" fill="#5d4037"/>
      <path id="Tracé_371" data-name="Tracé 371" d="M306.25,525h5.493v5.493H306.25Z" transform="translate(-235.233 -364.323)" fill="#5d4037"/>
      <path id="Tracé_372" data-name="Tracé 372" d="M341.25,490h5.493v5.493H341.25Z" transform="translate(-259.246 -340.31)" fill="#5d4037"/>
      <path id="Tracé_373" data-name="Tracé 373" d="M474.226,262.5h-16.48A2.746,2.746,0,0,0,455,265.247v8.24a8.25,8.25,0,0,0,8.24,8.24h5.493a8.25,8.25,0,0,0,8.24-8.24v-8.24A2.746,2.746,0,0,0,474.226,262.5Zm-2.747,10.986a2.75,2.75,0,0,1-2.747,2.747H463.24a2.75,2.75,0,0,1-2.747-2.747v-5.493H471.48Z" transform="translate(-337.29 -184.222)" fill="#5d4037"/>
      <path id="Tracé_374" data-name="Tracé 374" d="M356.709,212.314h38.452a2.746,2.746,0,0,0,2.747-2.747V151.889h13.733a2.746,2.746,0,0,0,2.747-2.747V120.6a8.193,8.193,0,0,0-1.4-4.6l-9.671-14.371a13.65,13.65,0,0,0-12.194-7.423h-1.755a19.227,19.227,0,1,0-26.856,0h-1.755A13.661,13.661,0,0,0,348.47,101.8l-4.445,8.888H326.5a2.746,2.746,0,0,0-2.747,2.747v16.48a2.746,2.746,0,0,0,2.747,2.747h21.973a16.07,16.07,0,0,0,5.493-.964v77.869a2.746,2.746,0,0,0,2.747,2.747Zm21.973-5.493V157.382h-5.493v49.439H359.456V127.929l7.048-11.747h18.863l7.048,11.747v78.892ZM384.175,99.7V110.69H367.7V99.7Zm14.313,4.554c.055.107.113.206.175.305l9.764,14.513a2.72,2.72,0,0,1,.467,1.529V146.4H397.908V127.109a2.7,2.7,0,0,0-.4-1.346l.011,0-7.85-13.082V99.7h1.451a8.193,8.193,0,0,1,7.369,4.554ZM362.2,80.477A13.733,13.733,0,1,1,375.935,94.21,13.748,13.748,0,0,1,362.2,80.477Zm-13.733,46.692H329.242V116.183h14.783a5.459,5.459,0,0,0,4.913-3.035l4.444-8.888a8.191,8.191,0,0,1,7.369-4.557H362.2v12.973l-7.469,12.444a10.829,10.829,0,0,1-6.264,2.049Z" transform="translate(-247.239 -46.144)" fill="#5d4037"/>
      <path id="Tracé_375" data-name="Tracé 375" d="M192.757,103.98h16.48a2.746,2.746,0,0,0,2.747-2.747V90.247a2.746,2.746,0,0,0-2.747-2.747h-16.48a2.746,2.746,0,0,0-2.747,2.747v10.986A2.746,2.746,0,0,0,192.757,103.98ZM195.5,92.993H206.49v5.493H195.5Z" transform="translate(-155.48 -64.154)" fill="#5d4037"/>
      <path id="Tracé_376" data-name="Tracé 376" d="M90.247,88.912h63.172a2.746,2.746,0,0,0,2.747-2.747V50.459h5.493a2.745,2.745,0,0,0,2.237-4.342L150.162,26.891a2.752,2.752,0,0,0-1.005-.86l-16.48-8.24a2.745,2.745,0,0,0-2.458,0L117.205,24.3a16.249,16.249,0,0,0-13.225-6.8A16.5,16.5,0,0,0,87.5,33.979V86.165a2.746,2.746,0,0,0,2.747,2.747Zm2.747-49.439h10.75L99,46.117a2.745,2.745,0,0,0,2.237,4.342h5.493V83.418H92.993Zm33.785,35.706-4.357,4.357V70.823Zm3.884,3.883,4.355,4.357h-8.712Zm3.883-3.883,4.357-4.357v8.712ZM130.662,71.3l-4.357-4.357h8.712Zm.782-47.979,14.642,7.32,10.235,14.329h-2.9a2.746,2.746,0,0,0-2.747,2.747V83.417H144.4V64.191a2.746,2.746,0,0,0-2.747-2.747H119.676a2.746,2.746,0,0,0-2.747,2.747V83.417h-4.711V47.712a2.746,2.746,0,0,0-2.747-2.747h-2.9l4.746-6.645,5.488-7.685.62-.308s0,0,0,0Zm-27.466-.324a10.806,10.806,0,0,1,8.547,4.184l-1.621,2.268-3.238,4.534H92.992a11,11,0,0,1,10.986-10.986Z" transform="translate(-85.148 -16.126)" fill="#5d4037"/>
      <path id="Tracé_377" data-name="Tracé 377" d="M341.25,525h5.493v5.493H341.25Z" transform="translate(-259.246 -364.323)" fill="#5d4037"/>
      <path id="Tracé_378" data-name="Tracé 378" d="M376.25,525h5.493v5.493H376.25Z" transform="translate(-283.26 -364.323)" fill="#5d4037"/>
      <path id="Tracé_379" data-name="Tracé 379" d="M322.318,15.872a2.762,2.762,0,0,1-2.007-.824A8.121,8.121,0,0,0,315,13.125v5.493a2.762,2.762,0,0,1,2.007.824,8.3,8.3,0,0,0,10.621,0,2.878,2.878,0,0,1,4.032,0,8.136,8.136,0,0,0,5.313,1.923V15.872a2.779,2.779,0,0,1-2.016-.824,8.3,8.3,0,0,0-10.624,0A2.78,2.78,0,0,1,322.318,15.872Z" transform="translate(-241.237 -13.125)" fill="#5d4037"/>
      <path id="Tracé_380" data-name="Tracé 380" d="M371.375,63.192a2.878,2.878,0,0,1,4.032,0,8.129,8.129,0,0,0,5.312,1.923V59.622A2.779,2.779,0,0,1,378.7,58.8a8.3,8.3,0,0,0-10.624,0,2.867,2.867,0,0,1-4.023,0,8.128,8.128,0,0,0-5.311-1.923v5.493a2.762,2.762,0,0,1,2.007.824,8.3,8.3,0,0,0,10.622,0Z" transform="translate(-271.25 -43.142)" fill="#5d4037"/>
      <path id="Tracé_381" data-name="Tracé 381" d="M520.125,19.442a2.878,2.878,0,0,1,4.032,0,8.129,8.129,0,0,0,5.312,1.923V15.872a2.779,2.779,0,0,1-2.016-.824,8.3,8.3,0,0,0-10.624,0,2.867,2.867,0,0,1-4.023,0,8.128,8.128,0,0,0-5.311-1.923v5.493a2.762,2.762,0,0,1,2.007.824,8.3,8.3,0,0,0,10.622,0Z" transform="translate(-373.308 -13.125)" fill="#5d4037"/>
      <path id="Tracé_382" data-name="Tracé 382" d="M564.473,59.622a2.779,2.779,0,0,1-2.016-.824,8.3,8.3,0,0,0-10.624,0,2.867,2.867,0,0,1-4.023,0,8.128,8.128,0,0,0-5.311-1.923v5.493a2.762,2.762,0,0,1,2.007.824,8.3,8.3,0,0,0,10.621,0,2.878,2.878,0,0,1,4.032,0,8.136,8.136,0,0,0,5.313,1.923Z" transform="translate(-397.324 -43.142)" fill="#5d4037"/>
    </g>
  </g>
</svg>
