<svg xmlns="http://www.w3.org/2000/svg" xmlns:xlink="http://www.w3.org/1999/xlink" width="170" height="170" viewBox="0 0 170 170">
  <defs>
    <clipPath id="clip-valeur4_illu">
      <rect width="170" height="170"/>
    </clipPath>
  </defs>
  <g id="valeur4_illu" clip-path="url(#clip-valeur4_illu)">
    <g id="noun-food-safety-1176667" transform="translate(2 2)">
      <path id="Tracé_344" data-name="Tracé 344" d="M221.52,130.487h18.24l7.5,7.5a2.753,2.753,0,0,0,1.957.811h41.542a8.273,8.273,0,0,0,6.148-13.847,8.182,8.182,0,0,0,0-11.078,8.187,8.187,0,0,0-.025-11.109,7.951,7.951,0,0,0,2.075-4.134,8.313,8.313,0,0,0-8.2-9.682H272.445L274,84.282a2.85,2.85,0,0,0,.141-.875V71.913a10.664,10.664,0,0,0-20.917-2.93l-3.645,12.764-9.594,7.2H221.52a2.769,2.769,0,0,0-2.769,2.769v36a2.769,2.769,0,0,0,2.769,2.769Zm32.126-44.865a2.768,2.768,0,0,0,1-1.454l3.9-13.662a5.124,5.124,0,0,1,10.05,1.407V82.958l-2.626,7.882a2.768,2.768,0,0,0,2.626,3.645h22.156a2.774,2.774,0,0,1,2.731,3.254,3.005,3.005,0,0,1-3.028,2.285H274.14v5.539h16.617a2.769,2.769,0,1,1,0,5.539H274.14v5.539h16.617a2.769,2.769,0,1,1,0,5.539H274.14v5.539h16.617a2.769,2.769,0,1,1,0,5.539h-40.4l-6.685-6.685V93.1ZM224.29,94.484h13.847v30.464H224.29Z" transform="translate(-177.209 -47.402)" fill="#5d4037"/>
      <path id="Tracé_345" data-name="Tracé 345" d="M250.9,161.509H233.555a13.635,13.635,0,0,0,1.191-5.539,13.868,13.868,0,0,0-12.95-13.82,19.412,19.412,0,0,0-9.142-9.172,66.5,66.5,0,1,0-94.951-5.453,73.914,73.914,0,0,0-15.417-4.746,2.771,2.771,0,0,0-3.222,2.379c-.091.72-2.2,17.758,3.14,26.7a41.637,41.637,0,0,0,8.123,9.657H90.269A2.769,2.769,0,0,0,87.5,164.28a19.41,19.41,0,0,0,19.386,19.386H234.281a19.41,19.41,0,0,0,19.386-19.386,2.769,2.769,0,0,0-2.769-2.772Zm-33.544-15.614a2.805,2.805,0,0,0,2.841,1.85l.7-.083a8.318,8.318,0,0,1,8.308,8.308,8.115,8.115,0,0,1-2.171,5.539H214.357a2.277,2.277,0,0,0-1.595,0H201.387c0-.053-.016-.1-.022-.155-.036-.373-.1-.739-.152-1.11-.074-.556-.15-1.11-.255-1.659-.091-.476-.205-.945-.319-1.412-.1-.424-.205-.847-.326-1.266-.147-.509-.308-1.011-.48-1.51-.125-.36-.255-.717-.393-1.072-.2-.518-.41-1.03-.637-1.537-.143-.319-.3-.628-.454-.945-.255-.516-.509-1.027-.793-1.526-.158-.277-.33-.543-.5-.815-.313-.512-.623-1.027-.964-1.521-.13-.188-.277-.366-.413-.554a30.724,30.724,0,0,0-2.986-3.553.009.009,0,0,1,0,0c.049-.074.111-.141.161-.216a13.394,13.394,0,0,1,.964-1.262c.141-.163.3-.31.449-.465.274-.291.554-.576.853-.839.183-.161.373-.308.565-.46.291-.23.587-.454.9-.661q.312-.208.637-.4c.313-.188.634-.362.964-.527.224-.111.449-.219.679-.319.346-.15.7-.277,1.055-.4.227-.078.451-.158.681-.221.4-.111.8-.192,1.21-.268.2-.036.4-.089.6-.116a13.353,13.353,0,0,1,1.867-.136,13.956,13.956,0,0,1,13.072,9.311Zm-84.606,15.614c-.221-.227-.44-.451-.656-.7-.244-.279-.485-.556-.72-.862-.308-.4-.6-.822-.9-1.257-.244-.357-.487-.712-.72-1.092-.272-.443-.529-.914-.786-1.385-.232-.427-.469-.844-.69-1.291-.239-.482-.46-.985-.681-1.487-.21-.476-.429-.945-.626-1.438-.21-.523-.393-1.063-.585-1.6-.177-.5-.366-.992-.527-1.5-.183-.579-.335-1.168-.493-1.756-.134-.487-.279-.969-.4-1.459-.161-.681-.279-1.362-.407-2.046-.074-.4-.172-.811-.232-1.215-.166-1.088-.291-2.174-.36-3.24a15.766,15.766,0,0,1,.074-2.669.084.084,0,0,1,0-.025,24.442,24.442,0,0,1,.54-3.066c0-.027,0-.053,0-.08.252-1.047.565-2.1.927-3.158a1.245,1.245,0,0,0,.072-.147,70.68,70.68,0,0,1,7.267-14.288,74.309,74.309,0,0,1,6.732,6.721c.185.21.368.41.551.626l.074.091c4.467,5.253,8.784,12.105,8.682,18.893-.009.449-.031.9-.061,1.358-.4.424-.764.869-1.133,1.311-.064.078-.134.15-.2.227a30.317,30.317,0,0,0-4.487,7.386c-.036.083-.067.169-.1.252q-.482,1.159-.864,2.357c-.064.2-.122.393-.181.592-.208.7-.391,1.409-.549,2.13-.056.252-.114.5-.163.753-.138.723-.246,1.454-.335,2.191-.027.23-.067.454-.089.684,0,.067-.02.13-.025.2h-7.967Zm13.673-.9c.069-.465.127-.936.221-1.393.014-.064.033-.125.047-.188a24.7,24.7,0,0,1,3.218-7.918c.064-.1.122-.21.188-.313.3-.471.634-.925.969-1.374.136-.183.266-.368.407-.549.31-.393.639-.77.972-1.146.152-.169.3-.341.462-.507,0,0,.011,0,.016-.011v0c.587-.623,1.2-1.208,1.834-1.762.049-.042.1-.08.15-.122.545-.469,1.108-.9,1.684-1.318.2-.141.4-.277.6-.413.432-.293.873-.57,1.32-.833.3-.174.6-.344.9-.5.371-.2.746-.38,1.124-.559.362-.169.726-.338,1.1-.49.349-.143.7-.268,1.055-.4.4-.141.795-.286,1.2-.41.371-.111.748-.2,1.121-.293.4-.1.786-.205,1.191-.286.457-.091.925-.15,1.387-.213.333-.047.659-.108.994-.141.82-.073,1.639-.117,2.467-.117.77,0,1.532.038,2.282.108.5.047.992.127,1.487.2.241.036.485.061.723.1.628.116,1.249.263,1.864.429.094.025.192.042.286.069.673.188,1.338.407,1.994.65.033.011.069.022.1.036q1.014.382,1.994.853a.254.254,0,0,1,.042.02q.985.473,1.925,1.036a.258.258,0,0,0,.036.02c.621.371,1.226.773,1.816,1.2l.058.038q.872.636,1.7,1.349c.022.02.047.038.069.058a25.059,25.059,0,0,1,3.584,3.872c.044.058.083.122.127.18.454.618.878,1.257,1.271,1.911.078.13.152.263.23.4q.523.9.967,1.853c.072.152.143.3.21.457.286.639.54,1.293.77,1.955.049.143.105.282.152.427.239.723.438,1.459.607,2.2.02.085.047.172.067.257a24.5,24.5,0,0,1,.4,2.474H146.286c.033-.3.089-.6.134-.9ZM167.815,23.037a60.915,60.915,0,0,1,38.506,108.126c-.355-.038-.7-.025-1.052-.045-.33-.016-.652-.072-.987-.072-.091,0-.177.02-.268.02a18.806,18.806,0,0,0-2.22.161c-.114.014-.23.016-.341.033a19.131,19.131,0,0,0-11.582,6.254c-.2.221-.373.469-.565.7-.291.357-.6.7-.869,1.081-.02-.014-.038-.025-.058-.036-.413-.286-.842-.549-1.269-.815-.313-.194-.626-.391-.945-.574-.438-.252-.878-.487-1.329-.717-.333-.169-.67-.33-1.008-.485-.451-.21-.9-.42-1.369-.61-.407-.166-.826-.308-1.238-.454-.681-.241-1.369-.462-2.072-.656-.507-.141-1.014-.279-1.526-.393-.373-.083-.753-.152-1.132-.221-.57-.105-1.141-.192-1.717-.263-.324-.038-.643-.083-.969-.114-.914-.083-1.834-.138-2.758-.138-.947,0-1.885.058-2.816.143-.232.022-.465.049-.7.078q-1.172.134-2.318.355c-.143.027-.288.049-.432.08a30.007,30.007,0,0,0-5.412,1.681l-.368.158c-.764.333-1.515.692-2.251,1.086-.1.053-.2.1-.3.158-.757.415-1.5.856-2.218,1.338a24.453,24.453,0,0,0-.57-2.883c-.031-.114-.074-.224-.105-.341-.235-.862-.5-1.717-.815-2.562-.125-.333-.277-.656-.413-.985-.252-.614-.5-1.23-.789-1.831-.181-.377-.382-.739-.574-1.11-.279-.54-.556-1.077-.858-1.6-.221-.382-.454-.753-.687-1.13-.3-.493-.607-.985-.925-1.468-.25-.377-.507-.739-.767-1.108-.321-.457-.639-.909-.969-1.349-.272-.362-.543-.712-.82-1.063-.33-.42-.659-.836-.994-1.241-.279-.341-.559-.668-.839-.994-.333-.388-.661-.764-.994-1.132-.282-.313-.556-.618-.836-.916-.326-.351-.645-.69-.967-1.019-.274-.286-.543-.563-.811-.831-.31-.31-.607-.6-.905-.9-.261-.252-.512-.5-.762-.734-.286-.268-.551-.516-.82-.762-.235-.216-.469-.431-.69-.632-.252-.227-.476-.424-.706-.626-.2-.174-.4-.355-.585-.509-.219-.188-.4-.338-.59-.5-.15-.125-.308-.261-.438-.366-.183-.152-.315-.255-.454-.368l-.257-.208c-.174-.138-.3-.23-.346-.268a2.762,2.762,0,0,0-2.075-.54h0a3.084,3.084,0,0,0-.46.163,2.918,2.918,0,0,0-.57.2c-.009,0-.014.016-.025.022a2.829,2.829,0,0,0-.784.712A84.2,84.2,0,0,0,123.3,121.27l-.033.069q-.61,1.233-1.188,2.535c-.027.064-.061.125-.089.188A60.887,60.887,0,0,1,167.815,23.038ZM106.96,149.011c-2.977-4.988-3.058-14.49-2.68-20.139a63.881,63.881,0,0,1,14.49,5.318c-.011.072-.014.136-.025.208-.116.7-.192,1.4-.246,2.088-.014.183-.047.373-.058.551a20.288,20.288,0,0,0,0,2.5c.074,1.155.216,2.321.391,3.493.053.349.116.695.177,1.043.15.862.321,1.717.518,2.575.08.349.158.695.246,1.044.268,1.063.567,2.119.905,3.16.031.094.056.192.085.286.373,1.132.793,2.235,1.238,3.315.127.308.263.6.4.905q.512,1.166,1.066,2.274c.163.324.324.643.493.958q.64,1.189,1.329,2.282c.114.181.219.377.335.551.02.027.036.061.056.091h-6.124a38.807,38.807,0,0,1-12.586-12.5Zm127.322,29.115H106.887a13.869,13.869,0,0,1-13.568-11.078H247.848a13.869,13.869,0,0,1-13.568,11.078Z" transform="translate(-87.5 -17.496)" fill="#5d4037"/>
      <path id="Tracé_346" data-name="Tracé 346" d="M342.72,420h5.539v8.308H342.72Z" transform="translate(-261.941 -292.604)" fill="#5d4037"/>
      <path id="Tracé_347" data-name="Tracé 347" d="M292.78,435.232l3.917-3.917,5.538,5.538-3.917,3.917Z" transform="translate(-227.807 -300.338)" fill="#5d4037"/>
      <path id="Tracé_348" data-name="Tracé 348" d="M380.28,436.852l5.538-5.538,3.917,3.917-5.538,5.538Z" transform="translate(-287.613 -300.337)" fill="#5d4037"/>
    </g>
  </g>
</svg>
